<svg xmlns="http://www.w3.org/2000/svg" width="78" height="69" viewBox="0 0 78 69"><g><g><path fill="#afafaf" d="M68.136 34.3L38.78 63.545 9.49 34.25a16.916 16.916 0 0 1-4.994-12.043c0-4.55 1.758-8.822 4.978-12.026a16.887 16.887 0 0 1 12.008-4.979c4.55 0 8.838 1.775 12.058 4.995l3.712 3.713c.871.871 2.267.871 3.138 0l3.68-3.68A16.94 16.94 0 0 1 56.11 5.235c4.534 0 8.805 1.775 12.025 4.979 3.22 3.22 4.977 7.492 4.977 12.043.017 4.55-1.757 8.822-4.977 12.043zM71.3 7.075C67.24 3.017 61.869.8 56.135.8S45.012 3.034 40.954 7.092l-2.12 2.12-2.152-2.153C32.624 3.001 27.22.75 21.485.75A21.303 21.303 0 0 0 6.336 7.026C2.278 11.084.044 16.473.06 22.207c0 5.734 2.251 11.107 6.31 15.165l30.854 30.855a2.232 2.232 0 0 0 1.561.657c.559 0 1.134-.213 1.56-.64l30.922-30.806c4.058-4.058 6.292-9.447 6.292-15.181.017-5.734-2.201-11.123-6.26-15.182z"/></g></g></svg>