<svg xmlns="http://www.w3.org/2000/svg" width="70" height="70" viewBox="0 0 70 70"><g><g><path fill="#afafaf" d="M59.52 53.779c-3.018-7.06-8.943-12.424-16.103-14.814 3.596-2.61 5.938-6.847 5.938-11.621 0-7.916-6.44-14.356-14.355-14.356-7.916 0-14.355 6.44-14.355 14.356 0 4.774 2.342 9.01 5.938 11.621-7.16 2.39-13.085 7.754-16.102 14.814A30.74 30.74 0 0 1 4.1 35C4.102 17.963 17.964 4.102 35 4.102S65.898 17.962 65.898 35a30.74 30.74 0 0 1-6.379 18.779zM24.745 27.344c0-5.654 4.598-10.254 10.249-10.254 5.651 0 10.249 4.6 10.249 10.254s-4.598 10.254-10.249 10.254c-5.651 0-10.249-4.6-10.249-10.254zM35 65.898c-8.319 0-15.879-3.305-21.44-8.67 3.012-9.2 11.663-15.529 21.44-15.529 9.777 0 18.428 6.329 21.44 15.529-5.561 5.365-13.121 8.67-21.44 8.67zm24.749-55.647C53.139 3.641 44.349 0 35 0c-9.349 0-18.138 3.64-24.749 10.251C3.641 16.861 0 25.651 0 35c0 9.349 3.64 18.138 10.251 24.749C16.861 66.359 25.651 70 35 70c9.349 0 18.138-3.64 24.749-10.251C66.359 53.139 70 44.349 70 35c0-9.349-3.64-18.138-10.251-24.749z"/></g></g></svg>